<?xml version="1.0" encoding="utf-8" standalone="no"?>
<!DOCTYPE svg PUBLIC "-//W3C//DTD SVG 1.1//EN"
  "http://www.w3.org/Graphics/SVG/1.1/DTD/svg11.dtd">
<!-- Created with matplotlib (http://matplotlib.org/) -->
<svg height="504pt" version="1.1" viewBox="0 0 504 504" width="504pt" xmlns="http://www.w3.org/2000/svg" xmlns:xlink="http://www.w3.org/1999/xlink">
 <defs>
  <style type="text/css">
*{stroke-linecap:butt;stroke-linejoin:round;}
  </style>
 </defs>
 <g id="figure_1">
  <g id="patch_1">
   <path d="M 0 504 
L 504 504 
L 504 0 
L 0 0 
z
" style="fill:#ffffff;"/>
  </g>
  <g id="axes_1">
   <g id="patch_2">
    <path d="M 63 448.56 
L 453.6 448.56 
L 453.6 60.48 
L 63 60.48 
z
" style="fill:#ffffff;"/>
   </g>
   <g id="matplotlib.axis_1">
    <g id="xtick_1">
     <g id="line2d_1">
      <defs>
       <path d="M 0 0 
L 0 3.5 
" id="m5aa4c60006" style="stroke:#000000;stroke-width:0.8;"/>
      </defs>
      <g>
       <use style="stroke:#000000;stroke-width:0.8;" x="63" xlink:href="#m5aa4c60006" y="448.56"/>
      </g>
     </g>
     <g id="text_1">
      <!-- 0.0 -->
      <defs>
       <path d="M 4.15625 35.296875 
Q 4.15625 48 6.765625 55.734375 
Q 9.375 63.484375 14.515625 67.671875 
Q 19.671875 71.875 27.484375 71.875 
Q 33.25 71.875 37.59375 69.546875 
Q 41.9375 67.234375 44.765625 62.859375 
Q 47.609375 58.5 49.21875 52.21875 
Q 50.828125 45.953125 50.828125 35.296875 
Q 50.828125 22.703125 48.234375 14.96875 
Q 45.65625 7.234375 40.5 3 
Q 35.359375 -1.21875 27.484375 -1.21875 
Q 17.140625 -1.21875 11.234375 6.203125 
Q 4.15625 15.140625 4.15625 35.296875 
z
M 13.1875 35.296875 
Q 13.1875 17.671875 17.3125 11.828125 
Q 21.4375 6 27.484375 6 
Q 33.546875 6 37.671875 11.859375 
Q 41.796875 17.71875 41.796875 35.296875 
Q 41.796875 52.984375 37.671875 58.78125 
Q 33.546875 64.59375 27.390625 64.59375 
Q 21.34375 64.59375 17.71875 59.46875 
Q 13.1875 52.9375 13.1875 35.296875 
z
" id="ArialMT-30"/>
       <path d="M 9.078125 0 
L 9.078125 10.015625 
L 19.09375 10.015625 
L 19.09375 0 
z
" id="ArialMT-2e"/>
      </defs>
      <g transform="translate(52.575 466.296719)scale(0.15 -0.15)">
       <use xlink:href="#ArialMT-30"/>
       <use x="55.615234" xlink:href="#ArialMT-2e"/>
       <use x="83.398438" xlink:href="#ArialMT-30"/>
      </g>
     </g>
    </g>
    <g id="xtick_2">
     <g id="line2d_2">
      <g>
       <use style="stroke:#000000;stroke-width:0.8;" x="141.12" xlink:href="#m5aa4c60006" y="448.56"/>
      </g>
     </g>
     <g id="text_2">
      <!-- 0.2 -->
      <defs>
       <path d="M 50.34375 8.453125 
L 50.34375 0 
L 3.03125 0 
Q 2.9375 3.171875 4.046875 6.109375 
Q 5.859375 10.9375 9.828125 15.625 
Q 13.8125 20.3125 21.34375 26.46875 
Q 33.015625 36.03125 37.109375 41.625 
Q 41.21875 47.21875 41.21875 52.203125 
Q 41.21875 57.421875 37.46875 61 
Q 33.734375 64.59375 27.734375 64.59375 
Q 21.390625 64.59375 17.578125 60.78125 
Q 13.765625 56.984375 13.71875 50.25 
L 4.6875 51.171875 
Q 5.609375 61.28125 11.65625 66.578125 
Q 17.71875 71.875 27.9375 71.875 
Q 38.234375 71.875 44.234375 66.15625 
Q 50.25 60.453125 50.25 52 
Q 50.25 47.703125 48.484375 43.546875 
Q 46.734375 39.40625 42.65625 34.8125 
Q 38.578125 30.21875 29.109375 22.21875 
Q 21.1875 15.578125 18.9375 13.203125 
Q 16.703125 10.84375 15.234375 8.453125 
z
" id="ArialMT-32"/>
      </defs>
      <g transform="translate(130.695 466.296719)scale(0.15 -0.15)">
       <use xlink:href="#ArialMT-30"/>
       <use x="55.615234" xlink:href="#ArialMT-2e"/>
       <use x="83.398438" xlink:href="#ArialMT-32"/>
      </g>
     </g>
    </g>
    <g id="xtick_3">
     <g id="line2d_3">
      <g>
       <use style="stroke:#000000;stroke-width:0.8;" x="219.24" xlink:href="#m5aa4c60006" y="448.56"/>
      </g>
     </g>
     <g id="text_3">
      <!-- 0.4 -->
      <defs>
       <path d="M 32.328125 0 
L 32.328125 17.140625 
L 1.265625 17.140625 
L 1.265625 25.203125 
L 33.9375 71.578125 
L 41.109375 71.578125 
L 41.109375 25.203125 
L 50.78125 25.203125 
L 50.78125 17.140625 
L 41.109375 17.140625 
L 41.109375 0 
z
M 32.328125 25.203125 
L 32.328125 57.46875 
L 9.90625 25.203125 
z
" id="ArialMT-34"/>
      </defs>
      <g transform="translate(208.815 466.296719)scale(0.15 -0.15)">
       <use xlink:href="#ArialMT-30"/>
       <use x="55.615234" xlink:href="#ArialMT-2e"/>
       <use x="83.398438" xlink:href="#ArialMT-34"/>
      </g>
     </g>
    </g>
    <g id="xtick_4">
     <g id="line2d_4">
      <g>
       <use style="stroke:#000000;stroke-width:0.8;" x="297.36" xlink:href="#m5aa4c60006" y="448.56"/>
      </g>
     </g>
     <g id="text_4">
      <!-- 0.6 -->
      <defs>
       <path d="M 49.75 54.046875 
L 41.015625 53.375 
Q 39.84375 58.546875 37.703125 60.890625 
Q 34.125 64.65625 28.90625 64.65625 
Q 24.703125 64.65625 21.53125 62.3125 
Q 17.390625 59.28125 14.984375 53.46875 
Q 12.59375 47.65625 12.5 36.921875 
Q 15.671875 41.75 20.265625 44.09375 
Q 24.859375 46.4375 29.890625 46.4375 
Q 38.671875 46.4375 44.84375 39.96875 
Q 51.03125 33.5 51.03125 23.25 
Q 51.03125 16.5 48.125 10.71875 
Q 45.21875 4.9375 40.140625 1.859375 
Q 35.0625 -1.21875 28.609375 -1.21875 
Q 17.625 -1.21875 10.6875 6.859375 
Q 3.765625 14.9375 3.765625 33.5 
Q 3.765625 54.25 11.421875 63.671875 
Q 18.109375 71.875 29.4375 71.875 
Q 37.890625 71.875 43.28125 67.140625 
Q 48.6875 62.40625 49.75 54.046875 
z
M 13.875 23.1875 
Q 13.875 18.65625 15.796875 14.5 
Q 17.71875 10.359375 21.1875 8.171875 
Q 24.65625 6 28.46875 6 
Q 34.03125 6 38.03125 10.484375 
Q 42.046875 14.984375 42.046875 22.703125 
Q 42.046875 30.125 38.078125 34.390625 
Q 34.125 38.671875 28.125 38.671875 
Q 22.171875 38.671875 18.015625 34.390625 
Q 13.875 30.125 13.875 23.1875 
z
" id="ArialMT-36"/>
      </defs>
      <g transform="translate(286.935 466.296719)scale(0.15 -0.15)">
       <use xlink:href="#ArialMT-30"/>
       <use x="55.615234" xlink:href="#ArialMT-2e"/>
       <use x="83.398438" xlink:href="#ArialMT-36"/>
      </g>
     </g>
    </g>
    <g id="xtick_5">
     <g id="line2d_5">
      <g>
       <use style="stroke:#000000;stroke-width:0.8;" x="375.48" xlink:href="#m5aa4c60006" y="448.56"/>
      </g>
     </g>
     <g id="text_5">
      <!-- 0.8 -->
      <defs>
       <path d="M 17.671875 38.8125 
Q 12.203125 40.828125 9.5625 44.53125 
Q 6.9375 48.25 6.9375 53.421875 
Q 6.9375 61.234375 12.546875 66.546875 
Q 18.171875 71.875 27.484375 71.875 
Q 36.859375 71.875 42.578125 66.421875 
Q 48.296875 60.984375 48.296875 53.171875 
Q 48.296875 48.1875 45.671875 44.5 
Q 43.0625 40.828125 37.75 38.8125 
Q 44.34375 36.671875 47.78125 31.875 
Q 51.21875 27.09375 51.21875 20.453125 
Q 51.21875 11.28125 44.71875 5.03125 
Q 38.234375 -1.21875 27.640625 -1.21875 
Q 17.046875 -1.21875 10.546875 5.046875 
Q 4.046875 11.328125 4.046875 20.703125 
Q 4.046875 27.6875 7.59375 32.390625 
Q 11.140625 37.109375 17.671875 38.8125 
z
M 15.921875 53.71875 
Q 15.921875 48.640625 19.1875 45.40625 
Q 22.46875 42.1875 27.6875 42.1875 
Q 32.765625 42.1875 36.015625 45.375 
Q 39.265625 48.578125 39.265625 53.21875 
Q 39.265625 58.0625 35.90625 61.359375 
Q 32.5625 64.65625 27.59375 64.65625 
Q 22.5625 64.65625 19.234375 61.421875 
Q 15.921875 58.203125 15.921875 53.71875 
z
M 13.09375 20.65625 
Q 13.09375 16.890625 14.875 13.375 
Q 16.65625 9.859375 20.171875 7.921875 
Q 23.6875 6 27.734375 6 
Q 34.03125 6 38.125 10.046875 
Q 42.234375 14.109375 42.234375 20.359375 
Q 42.234375 26.703125 38.015625 30.859375 
Q 33.796875 35.015625 27.4375 35.015625 
Q 21.234375 35.015625 17.15625 30.90625 
Q 13.09375 26.8125 13.09375 20.65625 
z
" id="ArialMT-38"/>
      </defs>
      <g transform="translate(365.055 466.296719)scale(0.15 -0.15)">
       <use xlink:href="#ArialMT-30"/>
       <use x="55.615234" xlink:href="#ArialMT-2e"/>
       <use x="83.398438" xlink:href="#ArialMT-38"/>
      </g>
     </g>
    </g>
    <g id="xtick_6">
     <g id="line2d_6">
      <g>
       <use style="stroke:#000000;stroke-width:0.8;" x="453.6" xlink:href="#m5aa4c60006" y="448.56"/>
      </g>
     </g>
     <g id="text_6">
      <!-- 1.0 -->
      <defs>
       <path d="M 37.25 0 
L 28.46875 0 
L 28.46875 56 
Q 25.296875 52.984375 20.140625 49.953125 
Q 14.984375 46.921875 10.890625 45.40625 
L 10.890625 53.90625 
Q 18.265625 57.375 23.78125 62.296875 
Q 29.296875 67.234375 31.59375 71.875 
L 37.25 71.875 
z
" id="ArialMT-31"/>
      </defs>
      <g transform="translate(443.175 466.296719)scale(0.15 -0.15)">
       <use xlink:href="#ArialMT-31"/>
       <use x="55.615234" xlink:href="#ArialMT-2e"/>
       <use x="83.398438" xlink:href="#ArialMT-30"/>
      </g>
     </g>
    </g>
    <g id="text_7">
     <!-- $\alpha$ -->
     <defs>
      <path d="M 40.921875 25.4375 
L 40.96875 36.71875 
Q 41.015625 48.25 32.328125 48.296875 
Q 25.828125 48.34375 21.78125 42.921875 
Q 16.703125 36.234375 14.984375 27.296875 
Q 12.890625 16.546875 15.53125 11.421875 
Q 18.265625 6.203125 24.171875 6.203125 
Q 30.71875 6.203125 36.234375 16.609375 
z
M 33.84375 55.90625 
Q 49.078125 56.15625 48.875 40.375 
Q 48.875 40.375 56.5 54.6875 
L 64.5 54.6875 
L 48.734375 25.046875 
L 48.578125 14.359375 
Q 48.578125 11.96875 49.90625 9.96875 
Q 51.421875 7.625 52.984375 7.625 
L 57.328125 7.625 
L 55.859375 0 
L 50.4375 0 
Q 45.84375 0 42.53125 4.109375 
Q 40.96875 6.15625 40.921875 10.453125 
Q 37.75 5.21875 32.28125 0.78125 
Q 29.6875 -1.265625 22.703125 -1.21875 
Q 11.28125 -1.125 7.125 6.203125 
Q 2.875 13.8125 5.515625 27.296875 
Q 8.34375 41.796875 15.765625 48.390625 
Q 24.125 55.765625 33.84375 55.90625 
z
" id="DejaVuSans-Oblique-3b1"/>
     </defs>
     <g transform="translate(251.7 487.593594)scale(0.2 -0.2)">
      <use transform="translate(0 0.84375)" xlink:href="#DejaVuSans-Oblique-3b1"/>
     </g>
    </g>
   </g>
   <g id="matplotlib.axis_2">
    <g id="ytick_1">
     <g id="line2d_7">
      <defs>
       <path d="M 0 0 
L -3.5 0 
" id="mf8bfb08ba4" style="stroke:#000000;stroke-width:0.8;"/>
      </defs>
      <g>
       <use style="stroke:#000000;stroke-width:0.8;" x="63" xlink:href="#mf8bfb08ba4" y="448.56"/>
      </g>
     </g>
     <g id="text_8">
      <!-- 0 -->
      <g transform="translate(47.658594 453.928359)scale(0.15 -0.15)">
       <use xlink:href="#ArialMT-30"/>
      </g>
     </g>
    </g>
    <g id="ytick_2">
     <g id="line2d_8">
      <g>
       <use style="stroke:#000000;stroke-width:0.8;" x="63" xlink:href="#mf8bfb08ba4" y="400.05"/>
      </g>
     </g>
     <g id="text_9">
      <!-- 1 -->
      <g transform="translate(47.658594 405.418359)scale(0.15 -0.15)">
       <use xlink:href="#ArialMT-31"/>
      </g>
     </g>
    </g>
    <g id="ytick_3">
     <g id="line2d_9">
      <g>
       <use style="stroke:#000000;stroke-width:0.8;" x="63" xlink:href="#mf8bfb08ba4" y="351.54"/>
      </g>
     </g>
     <g id="text_10">
      <!-- 2 -->
      <g transform="translate(47.658594 356.908359)scale(0.15 -0.15)">
       <use xlink:href="#ArialMT-32"/>
      </g>
     </g>
    </g>
    <g id="ytick_4">
     <g id="line2d_10">
      <g>
       <use style="stroke:#000000;stroke-width:0.8;" x="63" xlink:href="#mf8bfb08ba4" y="303.03"/>
      </g>
     </g>
     <g id="text_11">
      <!-- 3 -->
      <defs>
       <path d="M 4.203125 18.890625 
L 12.984375 20.0625 
Q 14.5 12.59375 18.140625 9.296875 
Q 21.78125 6 27 6 
Q 33.203125 6 37.46875 10.296875 
Q 41.75 14.59375 41.75 20.953125 
Q 41.75 27 37.796875 30.921875 
Q 33.84375 34.859375 27.734375 34.859375 
Q 25.25 34.859375 21.53125 33.890625 
L 22.515625 41.609375 
Q 23.390625 41.5 23.921875 41.5 
Q 29.546875 41.5 34.03125 44.421875 
Q 38.53125 47.359375 38.53125 53.46875 
Q 38.53125 58.296875 35.25 61.46875 
Q 31.984375 64.65625 26.8125 64.65625 
Q 21.6875 64.65625 18.265625 61.421875 
Q 14.84375 58.203125 13.875 51.765625 
L 5.078125 53.328125 
Q 6.6875 62.15625 12.390625 67.015625 
Q 18.109375 71.875 26.609375 71.875 
Q 32.46875 71.875 37.390625 69.359375 
Q 42.328125 66.84375 44.9375 62.5 
Q 47.5625 58.15625 47.5625 53.265625 
Q 47.5625 48.640625 45.0625 44.828125 
Q 42.578125 41.015625 37.703125 38.765625 
Q 44.046875 37.3125 47.5625 32.6875 
Q 51.078125 28.078125 51.078125 21.140625 
Q 51.078125 11.765625 44.234375 5.25 
Q 37.40625 -1.265625 26.953125 -1.265625 
Q 17.53125 -1.265625 11.296875 4.34375 
Q 5.078125 9.96875 4.203125 18.890625 
z
" id="ArialMT-33"/>
      </defs>
      <g transform="translate(47.658594 308.398359)scale(0.15 -0.15)">
       <use xlink:href="#ArialMT-33"/>
      </g>
     </g>
    </g>
    <g id="ytick_5">
     <g id="line2d_11">
      <g>
       <use style="stroke:#000000;stroke-width:0.8;" x="63" xlink:href="#mf8bfb08ba4" y="254.52"/>
      </g>
     </g>
     <g id="text_12">
      <!-- 4 -->
      <g transform="translate(47.658594 259.888359)scale(0.15 -0.15)">
       <use xlink:href="#ArialMT-34"/>
      </g>
     </g>
    </g>
    <g id="ytick_6">
     <g id="line2d_12">
      <g>
       <use style="stroke:#000000;stroke-width:0.8;" x="63" xlink:href="#mf8bfb08ba4" y="206.01"/>
      </g>
     </g>
     <g id="text_13">
      <!-- 5 -->
      <defs>
       <path d="M 4.15625 18.75 
L 13.375 19.53125 
Q 14.40625 12.796875 18.140625 9.390625 
Q 21.875 6 27.15625 6 
Q 33.5 6 37.890625 10.78125 
Q 42.28125 15.578125 42.28125 23.484375 
Q 42.28125 31 38.0625 35.34375 
Q 33.84375 39.703125 27 39.703125 
Q 22.75 39.703125 19.328125 37.765625 
Q 15.921875 35.84375 13.96875 32.765625 
L 5.71875 33.84375 
L 12.640625 70.609375 
L 48.25 70.609375 
L 48.25 62.203125 
L 19.671875 62.203125 
L 15.828125 42.96875 
Q 22.265625 47.46875 29.34375 47.46875 
Q 38.71875 47.46875 45.15625 40.96875 
Q 51.609375 34.46875 51.609375 24.265625 
Q 51.609375 14.546875 45.953125 7.46875 
Q 39.0625 -1.21875 27.15625 -1.21875 
Q 17.390625 -1.21875 11.203125 4.25 
Q 5.03125 9.71875 4.15625 18.75 
z
" id="ArialMT-35"/>
      </defs>
      <g transform="translate(47.658594 211.378359)scale(0.15 -0.15)">
       <use xlink:href="#ArialMT-35"/>
      </g>
     </g>
    </g>
    <g id="ytick_7">
     <g id="line2d_13">
      <g>
       <use style="stroke:#000000;stroke-width:0.8;" x="63" xlink:href="#mf8bfb08ba4" y="157.5"/>
      </g>
     </g>
     <g id="text_14">
      <!-- 6 -->
      <g transform="translate(47.658594 162.868359)scale(0.15 -0.15)">
       <use xlink:href="#ArialMT-36"/>
      </g>
     </g>
    </g>
    <g id="ytick_8">
     <g id="line2d_14">
      <g>
       <use style="stroke:#000000;stroke-width:0.8;" x="63" xlink:href="#mf8bfb08ba4" y="108.99"/>
      </g>
     </g>
     <g id="text_15">
      <!-- 7 -->
      <defs>
       <path d="M 4.734375 62.203125 
L 4.734375 70.65625 
L 51.078125 70.65625 
L 51.078125 63.8125 
Q 44.234375 56.546875 37.515625 44.484375 
Q 30.8125 32.421875 27.15625 19.671875 
Q 24.515625 10.6875 23.78125 0 
L 14.75 0 
Q 14.890625 8.453125 18.0625 20.40625 
Q 21.234375 32.375 27.171875 43.484375 
Q 33.109375 54.59375 39.796875 62.203125 
z
" id="ArialMT-37"/>
      </defs>
      <g transform="translate(47.658594 114.358359)scale(0.15 -0.15)">
       <use xlink:href="#ArialMT-37"/>
      </g>
     </g>
    </g>
    <g id="ytick_9">
     <g id="line2d_15">
      <g>
       <use style="stroke:#000000;stroke-width:0.8;" x="63" xlink:href="#mf8bfb08ba4" y="60.48"/>
      </g>
     </g>
     <g id="text_16">
      <!-- 8 -->
      <g transform="translate(47.658594 65.848359)scale(0.15 -0.15)">
       <use xlink:href="#ArialMT-38"/>
      </g>
     </g>
    </g>
    <g id="text_17">
     <!-- $Re$ -->
     <defs>
      <path d="M 25.203125 64.796875 
L 20.21875 38.921875 
L 32.90625 38.921875 
Q 40.375 38.921875 44.984375 43.046875 
Q 49.609375 47.171875 49.609375 53.8125 
Q 49.609375 59.125 46.5 61.953125 
Q 43.40625 64.796875 37.59375 64.796875 
z
M 43.3125 35.015625 
Q 46.4375 34.28125 48.515625 31.390625 
Q 50.59375 28.515625 53.328125 19.921875 
L 59.515625 0 
L 49.125 0 
L 43.40625 18.703125 
Q 41.21875 25.921875 38.328125 28.359375 
Q 35.453125 30.8125 29.5 30.8125 
L 18.609375 30.8125 
L 12.59375 0 
L 2.6875 0 
L 16.890625 72.90625 
L 39.109375 72.90625 
Q 49.21875 72.90625 54.609375 68.328125 
Q 60.015625 63.765625 60.015625 55.171875 
Q 60.015625 47.5625 55.421875 41.984375 
Q 50.828125 36.421875 43.3125 35.015625 
z
" id="DejaVuSans-Oblique-52"/>
      <path d="M 48.09375 32.234375 
Q 48.25 33.015625 48.3125 33.84375 
Q 48.390625 34.671875 48.390625 35.5 
Q 48.390625 41.453125 44.890625 44.921875 
Q 41.40625 48.390625 35.40625 48.390625 
Q 28.71875 48.390625 23.578125 44.15625 
Q 18.453125 39.9375 15.828125 32.171875 
z
M 55.90625 25.203125 
L 14.109375 25.203125 
Q 13.8125 23.34375 13.71875 22.265625 
Q 13.625 21.1875 13.625 20.40625 
Q 13.625 13.625 17.796875 9.90625 
Q 21.96875 6.203125 29.59375 6.203125 
Q 35.453125 6.203125 40.671875 7.515625 
Q 45.90625 8.84375 50.390625 11.375 
L 48.6875 2.484375 
Q 43.84375 0.53125 38.6875 -0.4375 
Q 33.546875 -1.421875 28.21875 -1.421875 
Q 16.84375 -1.421875 10.71875 4.015625 
Q 4.59375 9.46875 4.59375 19.484375 
Q 4.59375 28.03125 7.640625 35.375 
Q 10.6875 42.71875 16.609375 48.484375 
Q 20.40625 52.09375 25.65625 54.046875 
Q 30.90625 56 36.8125 56 
Q 46.09375 56 51.578125 50.4375 
Q 57.078125 44.875 57.078125 35.5 
Q 57.078125 33.25 56.78125 30.6875 
Q 56.5 28.125 55.90625 25.203125 
z
" id="DejaVuSans-Oblique-65"/>
     </defs>
     <g transform="translate(39.683594 267.72)rotate(-90)scale(0.2 -0.2)">
      <use transform="translate(0 0.09375)" xlink:href="#DejaVuSans-Oblique-52"/>
      <use transform="translate(69.482422 0.09375)" xlink:href="#DejaVuSans-Oblique-65"/>
     </g>
    </g>
   </g>
   <g id="line2d_16">
    <defs>
     <path d="M 0 3 
C 0.795609 3 1.55874 2.683901 2.12132 2.12132 
C 2.683901 1.55874 3 0.795609 3 0 
C 3 -0.795609 2.683901 -1.55874 2.12132 -2.12132 
C 1.55874 -2.683901 0.795609 -3 0 -3 
C -0.795609 -3 -1.55874 -2.683901 -2.12132 -2.12132 
C -2.683901 -1.55874 -3 -0.795609 -3 0 
C -3 0.795609 -2.683901 1.55874 -2.12132 2.12132 
C -1.55874 2.683901 -0.795609 3 0 3 
z
" id="m07a4e65ba6" style="stroke:#008000;"/>
    </defs>
    <g clip-path="url(#p05b2d31aa6)">
     <use style="fill:#008000;stroke:#008000;" x="66.906" xlink:href="#m07a4e65ba6" y="379.946209"/>
     <use style="fill:#008000;stroke:#008000;" x="70.772545" xlink:href="#m07a4e65ba6" y="379.915743"/>
     <use style="fill:#008000;stroke:#008000;" x="74.639091" xlink:href="#m07a4e65ba6" y="379.865079"/>
     <use style="fill:#008000;stroke:#008000;" x="78.505636" xlink:href="#m07a4e65ba6" y="379.79418"/>
     <use style="fill:#008000;stroke:#008000;" x="82.372182" xlink:href="#m07a4e65ba6" y="379.702994"/>
     <use style="fill:#008000;stroke:#008000;" x="86.238727" xlink:href="#m07a4e65ba6" y="379.591457"/>
     <use style="fill:#008000;stroke:#008000;" x="90.105273" xlink:href="#m07a4e65ba6" y="379.459485"/>
     <use style="fill:#008000;stroke:#008000;" x="93.971818" xlink:href="#m07a4e65ba6" y="379.306983"/>
     <use style="fill:#008000;stroke:#008000;" x="97.838364" xlink:href="#m07a4e65ba6" y="379.133838"/>
     <use style="fill:#008000;stroke:#008000;" x="101.704909" xlink:href="#m07a4e65ba6" y="378.939923"/>
     <use style="fill:#008000;stroke:#008000;" x="105.571455" xlink:href="#m07a4e65ba6" y="378.725093"/>
     <use style="fill:#008000;stroke:#008000;" x="109.438" xlink:href="#m07a4e65ba6" y="378.489187"/>
     <use style="fill:#008000;stroke:#008000;" x="113.304545" xlink:href="#m07a4e65ba6" y="378.232029"/>
     <use style="fill:#008000;stroke:#008000;" x="117.171091" xlink:href="#m07a4e65ba6" y="377.953423"/>
     <use style="fill:#008000;stroke:#008000;" x="121.037636" xlink:href="#m07a4e65ba6" y="377.653156"/>
     <use style="fill:#008000;stroke:#008000;" x="124.904182" xlink:href="#m07a4e65ba6" y="377.330997"/>
     <use style="fill:#008000;stroke:#008000;" x="128.770727" xlink:href="#m07a4e65ba6" y="376.986695"/>
     <use style="fill:#008000;stroke:#008000;" x="132.637273" xlink:href="#m07a4e65ba6" y="376.61998"/>
     <use style="fill:#008000;stroke:#008000;" x="136.503818" xlink:href="#m07a4e65ba6" y="376.230561"/>
     <use style="fill:#008000;stroke:#008000;" x="140.370364" xlink:href="#m07a4e65ba6" y="375.818124"/>
     <use style="fill:#008000;stroke:#008000;" x="144.236909" xlink:href="#m07a4e65ba6" y="375.382336"/>
     <use style="fill:#008000;stroke:#008000;" x="148.103455" xlink:href="#m07a4e65ba6" y="374.922837"/>
     <use style="fill:#008000;stroke:#008000;" x="151.97" xlink:href="#m07a4e65ba6" y="374.439245"/>
     <use style="fill:#008000;stroke:#008000;" x="155.836545" xlink:href="#m07a4e65ba6" y="373.931151"/>
     <use style="fill:#008000;stroke:#008000;" x="159.703091" xlink:href="#m07a4e65ba6" y="373.398119"/>
     <use style="fill:#008000;stroke:#008000;" x="163.569636" xlink:href="#m07a4e65ba6" y="372.839687"/>
     <use style="fill:#008000;stroke:#008000;" x="167.436182" xlink:href="#m07a4e65ba6" y="372.25536"/>
     <use style="fill:#008000;stroke:#008000;" x="171.302727" xlink:href="#m07a4e65ba6" y="371.644614"/>
     <use style="fill:#008000;stroke:#008000;" x="175.169273" xlink:href="#m07a4e65ba6" y="371.00689"/>
     <use style="fill:#008000;stroke:#008000;" x="179.035818" xlink:href="#m07a4e65ba6" y="370.341594"/>
     <use style="fill:#008000;stroke:#008000;" x="182.902364" xlink:href="#m07a4e65ba6" y="369.648098"/>
     <use style="fill:#008000;stroke:#008000;" x="186.768909" xlink:href="#m07a4e65ba6" y="368.925729"/>
     <use style="fill:#008000;stroke:#008000;" x="190.635455" xlink:href="#m07a4e65ba6" y="368.173777"/>
     <use style="fill:#008000;stroke:#008000;" x="194.502" xlink:href="#m07a4e65ba6" y="367.391485"/>
     <use style="fill:#008000;stroke:#008000;" x="198.368545" xlink:href="#m07a4e65ba6" y="366.578048"/>
     <use style="fill:#008000;stroke:#008000;" x="202.235091" xlink:href="#m07a4e65ba6" y="365.732611"/>
     <use style="fill:#008000;stroke:#008000;" x="206.101636" xlink:href="#m07a4e65ba6" y="364.854265"/>
     <use style="fill:#008000;stroke:#008000;" x="209.968182" xlink:href="#m07a4e65ba6" y="363.942042"/>
     <use style="fill:#008000;stroke:#008000;" x="213.834727" xlink:href="#m07a4e65ba6" y="362.994912"/>
     <use style="fill:#008000;stroke:#008000;" x="217.701273" xlink:href="#m07a4e65ba6" y="362.011779"/>
     <use style="fill:#008000;stroke:#008000;" x="221.567818" xlink:href="#m07a4e65ba6" y="360.991474"/>
     <use style="fill:#008000;stroke:#008000;" x="225.434364" xlink:href="#m07a4e65ba6" y="359.93275"/>
     <use style="fill:#008000;stroke:#008000;" x="229.300909" xlink:href="#m07a4e65ba6" y="358.834277"/>
     <use style="fill:#008000;stroke:#008000;" x="233.167455" xlink:href="#m07a4e65ba6" y="357.694637"/>
     <use style="fill:#008000;stroke:#008000;" x="237.034" xlink:href="#m07a4e65ba6" y="356.51231"/>
     <use style="fill:#008000;stroke:#008000;" x="240.900545" xlink:href="#m07a4e65ba6" y="355.285673"/>
     <use style="fill:#008000;stroke:#008000;" x="244.767091" xlink:href="#m07a4e65ba6" y="354.012988"/>
     <use style="fill:#008000;stroke:#008000;" x="248.633636" xlink:href="#m07a4e65ba6" y="352.692391"/>
     <use style="fill:#008000;stroke:#008000;" x="252.500182" xlink:href="#m07a4e65ba6" y="351.321883"/>
     <use style="fill:#008000;stroke:#008000;" x="256.366727" xlink:href="#m07a4e65ba6" y="349.899314"/>
     <use style="fill:#008000;stroke:#008000;" x="260.233273" xlink:href="#m07a4e65ba6" y="348.422373"/>
     <use style="fill:#008000;stroke:#008000;" x="264.099818" xlink:href="#m07a4e65ba6" y="346.888572"/>
     <use style="fill:#008000;stroke:#008000;" x="267.966364" xlink:href="#m07a4e65ba6" y="345.295225"/>
     <use style="fill:#008000;stroke:#008000;" x="271.832909" xlink:href="#m07a4e65ba6" y="343.639432"/>
     <use style="fill:#008000;stroke:#008000;" x="275.699455" xlink:href="#m07a4e65ba6" y="341.918057"/>
     <use style="fill:#008000;stroke:#008000;" x="279.566" xlink:href="#m07a4e65ba6" y="340.127697"/>
     <use style="fill:#008000;stroke:#008000;" x="283.432545" xlink:href="#m07a4e65ba6" y="338.264664"/>
     <use style="fill:#008000;stroke:#008000;" x="287.299091" xlink:href="#m07a4e65ba6" y="336.324943"/>
     <use style="fill:#008000;stroke:#008000;" x="291.165636" xlink:href="#m07a4e65ba6" y="334.304161"/>
     <use style="fill:#008000;stroke:#008000;" x="295.032182" xlink:href="#m07a4e65ba6" y="332.197543"/>
     <use style="fill:#008000;stroke:#008000;" x="298.898727" xlink:href="#m07a4e65ba6" y="329.999864"/>
     <use style="fill:#008000;stroke:#008000;" x="302.765273" xlink:href="#m07a4e65ba6" y="327.705395"/>
     <use style="fill:#008000;stroke:#008000;" x="306.631818" xlink:href="#m07a4e65ba6" y="325.307837"/>
     <use style="fill:#008000;stroke:#008000;" x="310.498364" xlink:href="#m07a4e65ba6" y="322.800249"/>
     <use style="fill:#008000;stroke:#008000;" x="314.364909" xlink:href="#m07a4e65ba6" y="320.174958"/>
     <use style="fill:#008000;stroke:#008000;" x="318.231455" xlink:href="#m07a4e65ba6" y="317.423462"/>
     <use style="fill:#008000;stroke:#008000;" x="322.098" xlink:href="#m07a4e65ba6" y="314.53631"/>
     <use style="fill:#008000;stroke:#008000;" x="325.964545" xlink:href="#m07a4e65ba6" y="311.502961"/>
     <use style="fill:#008000;stroke:#008000;" x="329.831091" xlink:href="#m07a4e65ba6" y="308.311618"/>
     <use style="fill:#008000;stroke:#008000;" x="333.697636" xlink:href="#m07a4e65ba6" y="304.94903"/>
     <use style="fill:#008000;stroke:#008000;" x="337.564182" xlink:href="#m07a4e65ba6" y="301.400255"/>
     <use style="fill:#008000;stroke:#008000;" x="341.430727" xlink:href="#m07a4e65ba6" y="297.648371"/>
     <use style="fill:#008000;stroke:#008000;" x="345.297273" xlink:href="#m07a4e65ba6" y="293.67413"/>
     <use style="fill:#008000;stroke:#008000;" x="349.163818" xlink:href="#m07a4e65ba6" y="289.455528"/>
     <use style="fill:#008000;stroke:#008000;" x="353.030364" xlink:href="#m07a4e65ba6" y="284.967283"/>
     <use style="fill:#008000;stroke:#008000;" x="356.896909" xlink:href="#m07a4e65ba6" y="280.180179"/>
     <use style="fill:#008000;stroke:#008000;" x="360.763455" xlink:href="#m07a4e65ba6" y="275.060248"/>
     <use style="fill:#008000;stroke:#008000;" x="364.63" xlink:href="#m07a4e65ba6" y="269.567736"/>
     <use style="fill:#008000;stroke:#008000;" x="368.496545" xlink:href="#m07a4e65ba6" y="263.65578"/>
     <use style="fill:#008000;stroke:#008000;" x="372.363091" xlink:href="#m07a4e65ba6" y="257.268698"/>
     <use style="fill:#008000;stroke:#008000;" x="376.229636" xlink:href="#m07a4e65ba6" y="250.339759"/>
     <use style="fill:#008000;stroke:#008000;" x="380.096182" xlink:href="#m07a4e65ba6" y="242.788226"/>
     <use style="fill:#008000;stroke:#008000;" x="383.962727" xlink:href="#m07a4e65ba6" y="234.515386"/>
     <use style="fill:#008000;stroke:#008000;" x="387.829273" xlink:href="#m07a4e65ba6" y="225.399138"/>
     <use style="fill:#008000;stroke:#008000;" x="391.695818" xlink:href="#m07a4e65ba6" y="215.286482"/>
     <use style="fill:#008000;stroke:#008000;" x="395.562364" xlink:href="#m07a4e65ba6" y="203.982897"/>
     <use style="fill:#008000;stroke:#008000;" x="399.428909" xlink:href="#m07a4e65ba6" y="191.237009"/>
     <use style="fill:#008000;stroke:#008000;" x="403.295455" xlink:href="#m07a4e65ba6" y="176.717928"/>
     <use style="fill:#008000;stroke:#008000;" x="407.162" xlink:href="#m07a4e65ba6" y="159.980855"/>
     <use style="fill:#008000;stroke:#008000;" x="411.028545" xlink:href="#m07a4e65ba6" y="140.413369"/>
     <use style="fill:#008000;stroke:#008000;" x="414.895091" xlink:href="#m07a4e65ba6" y="117.148686"/>
     <use style="fill:#008000;stroke:#008000;" x="418.761636" xlink:href="#m07a4e65ba6" y="88.920312"/>
     <use style="fill:#008000;stroke:#008000;" x="422.628182" xlink:href="#m07a4e65ba6" y="53.807919"/>
     <use style="fill:#008000;stroke:#008000;" x="426.494727" xlink:href="#m07a4e65ba6" y="8.770477"/>
     <use style="fill:#008000;stroke:#008000;" x="427.123988" xlink:href="#m07a4e65ba6" y="-1"/>
    </g>
   </g>
   <g id="line2d_17">
    <path clip-path="url(#p05b2d31aa6)" d="M 66.906 379.946209 
L 70.772545 379.915743 
L 74.639091 379.865081 
L 78.505636 379.794188 
L 82.372182 379.703014 
L 86.238727 379.591497 
L 90.105273 379.459561 
L 93.971818 379.307112 
L 97.838364 379.134046 
L 101.704909 378.94024 
L 105.571455 378.725559 
L 109.438 378.489851 
L 113.304545 378.232949 
L 117.171091 377.954667 
L 121.037636 377.654806 
L 124.904182 377.333148 
L 128.770727 376.989457 
L 132.637273 376.623479 
L 136.503818 376.234941 
L 140.370364 375.82355 
L 144.236909 375.388993 
L 148.103455 374.930935 
L 151.97 374.449019 
L 155.836545 373.942865 
L 159.703091 373.412069 
L 163.569636 372.8562 
L 167.436182 372.274801 
L 171.302727 371.667389 
L 175.169273 371.033448 
L 179.035818 370.372432 
L 182.902364 369.683764 
L 186.768909 368.966831 
L 190.635455 368.220981 
L 194.502 367.445527 
L 198.368545 366.639738 
L 202.235091 365.80284 
L 206.101636 364.934011 
L 209.968182 364.032381 
L 213.834727 363.097026 
L 217.701273 362.126965 
L 221.567818 361.121155 
L 225.434364 360.07849 
L 229.300909 358.997793 
L 233.167455 357.877812 
L 237.034 356.717212 
L 240.900545 355.514575 
L 244.767091 354.268385 
L 248.633636 352.977025 
L 252.500182 351.638769 
L 256.366727 350.251769 
L 260.233273 348.814048 
L 264.099818 347.323487 
L 267.966364 345.777813 
L 271.832909 344.174582 
L 275.699455 342.511167 
L 279.566 340.784737 
L 283.432545 338.992238 
L 287.299091 337.130368 
L 291.165636 335.195554 
L 295.032182 333.183924 
L 298.898727 331.091268 
L 302.765273 328.913007 
L 306.631818 326.644145 
L 310.498364 324.279223 
L 314.364909 321.812258 
L 318.231455 319.236683 
L 322.098 316.545264 
L 325.964545 313.730019 
L 329.831091 310.782106 
L 333.697636 307.691707 
L 337.564182 304.447881 
L 341.430727 301.038396 
L 345.297273 297.449522 
L 349.163818 293.665785 
L 353.030364 289.669675 
L 356.896909 285.441285 
L 360.763455 280.957866 
L 364.63 276.193283 
L 368.496545 271.117337 
L 372.363091 265.694911 
L 376.229636 259.884876 
L 380.096182 253.638706 
L 383.962727 246.898656 
L 387.829273 239.595374 
L 391.695818 231.644701 
L 395.562364 222.943328 
L 399.428909 213.362769 
L 403.295455 202.74085 
L 407.162 190.869378 
L 411.028545 177.475797 
L 414.895091 162.195011 
L 418.761636 144.524472 
L 422.628182 123.74933 
L 426.494727 98.810791 
L 430.361273 68.058441 
L 434.227818 28.742306 
L 436.401793 -1 
" style="fill:none;stroke:#ffa500;stroke-dasharray:14.8,6.4;stroke-dashoffset:0;stroke-width:4;"/>
   </g>
   <g id="patch_3">
    <path d="M 63 448.56 
L 63 60.48 
" style="fill:none;stroke:#000000;stroke-linecap:square;stroke-linejoin:miter;stroke-width:0.8;"/>
   </g>
   <g id="patch_4">
    <path d="M 453.6 448.56 
L 453.6 60.48 
" style="fill:none;stroke:#000000;stroke-linecap:square;stroke-linejoin:miter;stroke-width:0.8;"/>
   </g>
   <g id="patch_5">
    <path d="M 63 448.56 
L 453.6 448.56 
" style="fill:none;stroke:#000000;stroke-linecap:square;stroke-linejoin:miter;stroke-width:0.8;"/>
   </g>
   <g id="patch_6">
    <path d="M 63 60.48 
L 453.6 60.48 
" style="fill:none;stroke:#000000;stroke-linecap:square;stroke-linejoin:miter;stroke-width:0.8;"/>
   </g>
   <g id="legend_1">
    <g id="patch_7">
     <path d="M 73.5 115.13625 
L 339.916406 115.13625 
Q 342.916406 115.13625 342.916406 112.13625 
L 342.916406 70.98 
Q 342.916406 67.98 339.916406 67.98 
L 73.5 67.98 
Q 70.5 67.98 70.5 70.98 
L 70.5 112.13625 
Q 70.5 115.13625 73.5 115.13625 
z
" style="fill:#ffffff;opacity:0.8;stroke:#cccccc;stroke-linejoin:miter;"/>
    </g>
    <g id="line2d_18"/>
    <g id="line2d_19">
     <g>
      <use style="fill:#008000;stroke:#008000;" x="91.5" xlink:href="#m07a4e65ba6" y="79.51125"/>
     </g>
    </g>
    <g id="text_18">
     <!-- Numerical result using 10 modes -->
     <defs>
      <path d="M 7.625 0 
L 7.625 71.578125 
L 17.328125 71.578125 
L 54.9375 15.375 
L 54.9375 71.578125 
L 64.015625 71.578125 
L 64.015625 0 
L 54.296875 0 
L 16.703125 56.25 
L 16.703125 0 
z
" id="ArialMT-4e"/>
      <path d="M 40.578125 0 
L 40.578125 7.625 
Q 34.515625 -1.171875 24.125 -1.171875 
Q 19.53125 -1.171875 15.546875 0.578125 
Q 11.578125 2.34375 9.640625 5 
Q 7.71875 7.671875 6.9375 11.53125 
Q 6.390625 14.109375 6.390625 19.734375 
L 6.390625 51.859375 
L 15.1875 51.859375 
L 15.1875 23.09375 
Q 15.1875 16.21875 15.71875 13.8125 
Q 16.546875 10.359375 19.234375 8.375 
Q 21.921875 6.390625 25.875 6.390625 
Q 29.828125 6.390625 33.296875 8.421875 
Q 36.765625 10.453125 38.203125 13.9375 
Q 39.65625 17.4375 39.65625 24.078125 
L 39.65625 51.859375 
L 48.4375 51.859375 
L 48.4375 0 
z
" id="ArialMT-75"/>
      <path d="M 6.59375 0 
L 6.59375 51.859375 
L 14.453125 51.859375 
L 14.453125 44.578125 
Q 16.890625 48.390625 20.9375 50.703125 
Q 25 53.03125 30.171875 53.03125 
Q 35.9375 53.03125 39.625 50.640625 
Q 43.3125 48.25 44.828125 43.953125 
Q 50.984375 53.03125 60.84375 53.03125 
Q 68.5625 53.03125 72.703125 48.75 
Q 76.859375 44.484375 76.859375 35.59375 
L 76.859375 0 
L 68.109375 0 
L 68.109375 32.671875 
Q 68.109375 37.9375 67.25 40.25 
Q 66.40625 42.578125 64.15625 43.984375 
Q 61.921875 45.40625 58.890625 45.40625 
Q 53.421875 45.40625 49.796875 41.765625 
Q 46.1875 38.140625 46.1875 30.125 
L 46.1875 0 
L 37.40625 0 
L 37.40625 33.6875 
Q 37.40625 39.546875 35.25 42.46875 
Q 33.109375 45.40625 28.21875 45.40625 
Q 24.515625 45.40625 21.359375 43.453125 
Q 18.21875 41.5 16.796875 37.734375 
Q 15.375 33.984375 15.375 26.90625 
L 15.375 0 
z
" id="ArialMT-6d"/>
      <path d="M 42.09375 16.703125 
L 51.171875 15.578125 
Q 49.03125 7.625 43.21875 3.21875 
Q 37.40625 -1.171875 28.375 -1.171875 
Q 17 -1.171875 10.328125 5.828125 
Q 3.65625 12.84375 3.65625 25.484375 
Q 3.65625 38.578125 10.390625 45.796875 
Q 17.140625 53.03125 27.875 53.03125 
Q 38.28125 53.03125 44.875 45.953125 
Q 51.46875 38.875 51.46875 26.03125 
Q 51.46875 25.25 51.421875 23.6875 
L 12.75 23.6875 
Q 13.234375 15.140625 17.578125 10.59375 
Q 21.921875 6.0625 28.421875 6.0625 
Q 33.25 6.0625 36.671875 8.59375 
Q 40.09375 11.140625 42.09375 16.703125 
z
M 13.234375 30.90625 
L 42.1875 30.90625 
Q 41.609375 37.453125 38.875 40.71875 
Q 34.671875 45.796875 27.984375 45.796875 
Q 21.921875 45.796875 17.796875 41.75 
Q 13.671875 37.703125 13.234375 30.90625 
z
" id="ArialMT-65"/>
      <path d="M 6.5 0 
L 6.5 51.859375 
L 14.40625 51.859375 
L 14.40625 44 
Q 17.4375 49.515625 20 51.265625 
Q 22.5625 53.03125 25.640625 53.03125 
Q 30.078125 53.03125 34.671875 50.203125 
L 31.640625 42.046875 
Q 28.421875 43.953125 25.203125 43.953125 
Q 22.3125 43.953125 20.015625 42.21875 
Q 17.71875 40.484375 16.75 37.40625 
Q 15.28125 32.71875 15.28125 27.15625 
L 15.28125 0 
z
" id="ArialMT-72"/>
      <path d="M 6.640625 61.46875 
L 6.640625 71.578125 
L 15.4375 71.578125 
L 15.4375 61.46875 
z
M 6.640625 0 
L 6.640625 51.859375 
L 15.4375 51.859375 
L 15.4375 0 
z
" id="ArialMT-69"/>
      <path d="M 40.4375 19 
L 49.078125 17.875 
Q 47.65625 8.9375 41.8125 3.875 
Q 35.984375 -1.171875 27.484375 -1.171875 
Q 16.84375 -1.171875 10.375 5.78125 
Q 3.90625 12.75 3.90625 25.734375 
Q 3.90625 34.125 6.6875 40.421875 
Q 9.46875 46.734375 15.15625 49.875 
Q 20.84375 53.03125 27.546875 53.03125 
Q 35.984375 53.03125 41.359375 48.75 
Q 46.734375 44.484375 48.25 36.625 
L 39.703125 35.296875 
Q 38.484375 40.53125 35.375 43.15625 
Q 32.28125 45.796875 27.875 45.796875 
Q 21.234375 45.796875 17.078125 41.03125 
Q 12.9375 36.28125 12.9375 25.984375 
Q 12.9375 15.53125 16.9375 10.796875 
Q 20.953125 6.0625 27.390625 6.0625 
Q 32.5625 6.0625 36.03125 9.234375 
Q 39.5 12.40625 40.4375 19 
z
" id="ArialMT-63"/>
      <path d="M 40.4375 6.390625 
Q 35.546875 2.25 31.03125 0.53125 
Q 26.515625 -1.171875 21.34375 -1.171875 
Q 12.796875 -1.171875 8.203125 3 
Q 3.609375 7.171875 3.609375 13.671875 
Q 3.609375 17.484375 5.34375 20.625 
Q 7.078125 23.78125 9.890625 25.6875 
Q 12.703125 27.59375 16.21875 28.5625 
Q 18.796875 29.25 24.03125 29.890625 
Q 34.671875 31.15625 39.703125 32.90625 
Q 39.75 34.71875 39.75 35.203125 
Q 39.75 40.578125 37.25 42.78125 
Q 33.890625 45.75 27.25 45.75 
Q 21.046875 45.75 18.09375 43.578125 
Q 15.140625 41.40625 13.71875 35.890625 
L 5.125 37.0625 
Q 6.296875 42.578125 8.984375 45.96875 
Q 11.671875 49.359375 16.75 51.1875 
Q 21.828125 53.03125 28.515625 53.03125 
Q 35.15625 53.03125 39.296875 51.46875 
Q 43.453125 49.90625 45.40625 47.53125 
Q 47.359375 45.171875 48.140625 41.546875 
Q 48.578125 39.3125 48.578125 33.453125 
L 48.578125 21.734375 
Q 48.578125 9.46875 49.140625 6.21875 
Q 49.703125 2.984375 51.375 0 
L 42.1875 0 
Q 40.828125 2.734375 40.4375 6.390625 
z
M 39.703125 26.03125 
Q 34.90625 24.078125 25.34375 22.703125 
Q 19.921875 21.921875 17.671875 20.9375 
Q 15.4375 19.96875 14.203125 18.09375 
Q 12.984375 16.21875 12.984375 13.921875 
Q 12.984375 10.40625 15.640625 8.0625 
Q 18.3125 5.71875 23.4375 5.71875 
Q 28.515625 5.71875 32.46875 7.9375 
Q 36.421875 10.15625 38.28125 14.015625 
Q 39.703125 17 39.703125 22.796875 
z
" id="ArialMT-61"/>
      <path d="M 6.390625 0 
L 6.390625 71.578125 
L 15.1875 71.578125 
L 15.1875 0 
z
" id="ArialMT-6c"/>
      <path id="ArialMT-20"/>
      <path d="M 3.078125 15.484375 
L 11.765625 16.84375 
Q 12.5 11.625 15.84375 8.84375 
Q 19.1875 6.0625 25.203125 6.0625 
Q 31.25 6.0625 34.171875 8.515625 
Q 37.109375 10.984375 37.109375 14.3125 
Q 37.109375 17.28125 34.515625 19 
Q 32.71875 20.171875 25.53125 21.96875 
Q 15.875 24.421875 12.140625 26.203125 
Q 8.40625 27.984375 6.46875 31.125 
Q 4.546875 34.28125 4.546875 38.09375 
Q 4.546875 41.546875 6.125 44.5 
Q 7.71875 47.46875 10.453125 49.421875 
Q 12.5 50.921875 16.03125 51.96875 
Q 19.578125 53.03125 23.640625 53.03125 
Q 29.734375 53.03125 34.34375 51.265625 
Q 38.96875 49.515625 41.15625 46.5 
Q 43.359375 43.5 44.1875 38.484375 
L 35.59375 37.3125 
Q 35.015625 41.3125 32.203125 43.546875 
Q 29.390625 45.796875 24.265625 45.796875 
Q 18.21875 45.796875 15.625 43.796875 
Q 13.03125 41.796875 13.03125 39.109375 
Q 13.03125 37.40625 14.109375 36.03125 
Q 15.1875 34.625 17.484375 33.6875 
Q 18.796875 33.203125 25.25 31.453125 
Q 34.578125 28.953125 38.25 27.359375 
Q 41.9375 25.78125 44.03125 22.75 
Q 46.140625 19.734375 46.140625 15.234375 
Q 46.140625 10.84375 43.578125 6.953125 
Q 41.015625 3.078125 36.171875 0.953125 
Q 31.34375 -1.171875 25.25 -1.171875 
Q 15.140625 -1.171875 9.84375 3.03125 
Q 4.546875 7.234375 3.078125 15.484375 
z
" id="ArialMT-73"/>
      <path d="M 25.78125 7.859375 
L 27.046875 0.09375 
Q 23.34375 -0.6875 20.40625 -0.6875 
Q 15.625 -0.6875 12.984375 0.828125 
Q 10.359375 2.34375 9.28125 4.8125 
Q 8.203125 7.28125 8.203125 15.1875 
L 8.203125 45.015625 
L 1.765625 45.015625 
L 1.765625 51.859375 
L 8.203125 51.859375 
L 8.203125 64.703125 
L 16.9375 69.96875 
L 16.9375 51.859375 
L 25.78125 51.859375 
L 25.78125 45.015625 
L 16.9375 45.015625 
L 16.9375 14.703125 
Q 16.9375 10.9375 17.40625 9.859375 
Q 17.875 8.796875 18.921875 8.15625 
Q 19.96875 7.515625 21.921875 7.515625 
Q 23.390625 7.515625 25.78125 7.859375 
z
" id="ArialMT-74"/>
      <path d="M 6.59375 0 
L 6.59375 51.859375 
L 14.5 51.859375 
L 14.5 44.484375 
Q 20.21875 53.03125 31 53.03125 
Q 35.6875 53.03125 39.625 51.34375 
Q 43.5625 49.65625 45.515625 46.921875 
Q 47.46875 44.1875 48.25 40.4375 
Q 48.734375 37.984375 48.734375 31.890625 
L 48.734375 0 
L 39.9375 0 
L 39.9375 31.546875 
Q 39.9375 36.921875 38.90625 39.578125 
Q 37.890625 42.234375 35.28125 43.8125 
Q 32.671875 45.40625 29.15625 45.40625 
Q 23.53125 45.40625 19.453125 41.84375 
Q 15.375 38.28125 15.375 28.328125 
L 15.375 0 
z
" id="ArialMT-6e"/>
      <path d="M 4.984375 -4.296875 
L 13.53125 -5.5625 
Q 14.0625 -9.515625 16.5 -11.328125 
Q 19.78125 -13.765625 25.4375 -13.765625 
Q 31.546875 -13.765625 34.859375 -11.328125 
Q 38.1875 -8.890625 39.359375 -4.5 
Q 40.046875 -1.8125 39.984375 6.78125 
Q 34.234375 0 25.640625 0 
Q 14.9375 0 9.078125 7.71875 
Q 3.21875 15.4375 3.21875 26.21875 
Q 3.21875 33.640625 5.90625 39.90625 
Q 8.59375 46.1875 13.6875 49.609375 
Q 18.796875 53.03125 25.6875 53.03125 
Q 34.859375 53.03125 40.828125 45.609375 
L 40.828125 51.859375 
L 48.921875 51.859375 
L 48.921875 7.03125 
Q 48.921875 -5.078125 46.453125 -10.125 
Q 44 -15.1875 38.640625 -18.109375 
Q 33.296875 -21.046875 25.484375 -21.046875 
Q 16.21875 -21.046875 10.5 -16.875 
Q 4.78125 -12.703125 4.984375 -4.296875 
z
M 12.25 26.859375 
Q 12.25 16.65625 16.296875 11.96875 
Q 20.359375 7.28125 26.46875 7.28125 
Q 32.515625 7.28125 36.609375 11.9375 
Q 40.71875 16.609375 40.71875 26.5625 
Q 40.71875 36.078125 36.5 40.90625 
Q 32.28125 45.75 26.3125 45.75 
Q 20.453125 45.75 16.34375 40.984375 
Q 12.25 36.234375 12.25 26.859375 
z
" id="ArialMT-67"/>
      <path d="M 3.328125 25.921875 
Q 3.328125 40.328125 11.328125 47.265625 
Q 18.015625 53.03125 27.640625 53.03125 
Q 38.328125 53.03125 45.109375 46.015625 
Q 51.90625 39.015625 51.90625 26.65625 
Q 51.90625 16.65625 48.90625 10.90625 
Q 45.90625 5.171875 40.15625 2 
Q 34.421875 -1.171875 27.640625 -1.171875 
Q 16.75 -1.171875 10.03125 5.8125 
Q 3.328125 12.796875 3.328125 25.921875 
z
M 12.359375 25.921875 
Q 12.359375 15.96875 16.703125 11.015625 
Q 21.046875 6.0625 27.640625 6.0625 
Q 34.1875 6.0625 38.53125 11.03125 
Q 42.875 16.015625 42.875 26.21875 
Q 42.875 35.84375 38.5 40.796875 
Q 34.125 45.75 27.640625 45.75 
Q 21.046875 45.75 16.703125 40.8125 
Q 12.359375 35.890625 12.359375 25.921875 
z
" id="ArialMT-6f"/>
      <path d="M 40.234375 0 
L 40.234375 6.546875 
Q 35.296875 -1.171875 25.734375 -1.171875 
Q 19.53125 -1.171875 14.328125 2.25 
Q 9.125 5.671875 6.265625 11.796875 
Q 3.421875 17.921875 3.421875 25.875 
Q 3.421875 33.640625 6 39.96875 
Q 8.59375 46.296875 13.765625 49.65625 
Q 18.953125 53.03125 25.34375 53.03125 
Q 30.03125 53.03125 33.6875 51.046875 
Q 37.359375 49.078125 39.65625 45.90625 
L 39.65625 71.578125 
L 48.390625 71.578125 
L 48.390625 0 
z
M 12.453125 25.875 
Q 12.453125 15.921875 16.640625 10.984375 
Q 20.84375 6.0625 26.5625 6.0625 
Q 32.328125 6.0625 36.34375 10.765625 
Q 40.375 15.484375 40.375 25.140625 
Q 40.375 35.796875 36.265625 40.765625 
Q 32.171875 45.75 26.171875 45.75 
Q 20.3125 45.75 16.375 40.96875 
Q 12.453125 36.1875 12.453125 25.875 
z
" id="ArialMT-64"/>
     </defs>
     <g transform="translate(118.5 84.76125)scale(0.15 -0.15)">
      <use xlink:href="#ArialMT-4e"/>
      <use x="72.216797" xlink:href="#ArialMT-75"/>
      <use x="127.832031" xlink:href="#ArialMT-6d"/>
      <use x="211.132812" xlink:href="#ArialMT-65"/>
      <use x="266.748047" xlink:href="#ArialMT-72"/>
      <use x="300.048828" xlink:href="#ArialMT-69"/>
      <use x="322.265625" xlink:href="#ArialMT-63"/>
      <use x="372.265625" xlink:href="#ArialMT-61"/>
      <use x="427.880859" xlink:href="#ArialMT-6c"/>
      <use x="450.097656" xlink:href="#ArialMT-20"/>
      <use x="477.880859" xlink:href="#ArialMT-72"/>
      <use x="511.181641" xlink:href="#ArialMT-65"/>
      <use x="566.796875" xlink:href="#ArialMT-73"/>
      <use x="616.796875" xlink:href="#ArialMT-75"/>
      <use x="672.412109" xlink:href="#ArialMT-6c"/>
      <use x="694.628906" xlink:href="#ArialMT-74"/>
      <use x="722.412109" xlink:href="#ArialMT-20"/>
      <use x="750.195312" xlink:href="#ArialMT-75"/>
      <use x="805.810547" xlink:href="#ArialMT-73"/>
      <use x="855.810547" xlink:href="#ArialMT-69"/>
      <use x="878.027344" xlink:href="#ArialMT-6e"/>
      <use x="933.642578" xlink:href="#ArialMT-67"/>
      <use x="989.257812" xlink:href="#ArialMT-20"/>
      <use x="1017.041016" xlink:href="#ArialMT-31"/>
      <use x="1072.65625" xlink:href="#ArialMT-30"/>
      <use x="1128.271484" xlink:href="#ArialMT-20"/>
      <use x="1156.054688" xlink:href="#ArialMT-6d"/>
      <use x="1239.355469" xlink:href="#ArialMT-6f"/>
      <use x="1294.970703" xlink:href="#ArialMT-64"/>
      <use x="1350.585938" xlink:href="#ArialMT-65"/>
      <use x="1406.201172" xlink:href="#ArialMT-73"/>
     </g>
    </g>
    <g id="line2d_20">
     <path d="M 76.5 100.905 
L 106.5 100.905 
" style="fill:none;stroke:#ffa500;stroke-dasharray:14.8,6.4;stroke-dashoffset:0;stroke-width:4;"/>
    </g>
    <g id="line2d_21"/>
    <g id="text_19">
     <!-- Theoretical approximation  -->
     <defs>
      <path d="M 25.921875 0 
L 25.921875 63.140625 
L 2.34375 63.140625 
L 2.34375 71.578125 
L 59.078125 71.578125 
L 59.078125 63.140625 
L 35.40625 63.140625 
L 35.40625 0 
z
" id="ArialMT-54"/>
      <path d="M 6.59375 0 
L 6.59375 71.578125 
L 15.375 71.578125 
L 15.375 45.90625 
Q 21.53125 53.03125 30.90625 53.03125 
Q 36.671875 53.03125 40.921875 50.75 
Q 45.171875 48.484375 47 44.484375 
Q 48.828125 40.484375 48.828125 32.859375 
L 48.828125 0 
L 40.046875 0 
L 40.046875 32.859375 
Q 40.046875 39.453125 37.1875 42.453125 
Q 34.328125 45.453125 29.109375 45.453125 
Q 25.203125 45.453125 21.75 43.421875 
Q 18.3125 41.40625 16.84375 37.9375 
Q 15.375 34.46875 15.375 28.375 
L 15.375 0 
z
" id="ArialMT-68"/>
      <path d="M 6.59375 -19.875 
L 6.59375 51.859375 
L 14.59375 51.859375 
L 14.59375 45.125 
Q 17.4375 49.078125 21 51.046875 
Q 24.5625 53.03125 29.640625 53.03125 
Q 36.28125 53.03125 41.359375 49.609375 
Q 46.4375 46.1875 49.015625 39.953125 
Q 51.609375 33.734375 51.609375 26.3125 
Q 51.609375 18.359375 48.75 11.984375 
Q 45.90625 5.609375 40.453125 2.21875 
Q 35.015625 -1.171875 29 -1.171875 
Q 24.609375 -1.171875 21.109375 0.6875 
Q 17.625 2.546875 15.375 5.375 
L 15.375 -19.875 
z
M 14.546875 25.640625 
Q 14.546875 15.625 18.59375 10.84375 
Q 22.65625 6.0625 28.421875 6.0625 
Q 34.28125 6.0625 38.453125 11.015625 
Q 42.625 15.96875 42.625 26.375 
Q 42.625 36.28125 38.546875 41.203125 
Q 34.46875 46.140625 28.8125 46.140625 
Q 23.1875 46.140625 18.859375 40.890625 
Q 14.546875 35.640625 14.546875 25.640625 
z
" id="ArialMT-70"/>
      <path d="M 0.734375 0 
L 19.671875 26.953125 
L 2.15625 51.859375 
L 13.140625 51.859375 
L 21.09375 39.703125 
Q 23.34375 36.234375 24.703125 33.890625 
Q 26.859375 37.109375 28.65625 39.59375 
L 37.40625 51.859375 
L 47.90625 51.859375 
L 29.984375 27.4375 
L 49.265625 0 
L 38.484375 0 
L 27.828125 16.109375 
L 25 20.453125 
L 11.375 0 
z
" id="ArialMT-78"/>
     </defs>
     <g transform="translate(118.5 106.155)scale(0.15 -0.15)">
      <use xlink:href="#ArialMT-54"/>
      <use x="61.083984" xlink:href="#ArialMT-68"/>
      <use x="116.699219" xlink:href="#ArialMT-65"/>
      <use x="172.314453" xlink:href="#ArialMT-6f"/>
      <use x="227.929688" xlink:href="#ArialMT-72"/>
      <use x="261.230469" xlink:href="#ArialMT-65"/>
      <use x="316.845703" xlink:href="#ArialMT-74"/>
      <use x="344.628906" xlink:href="#ArialMT-69"/>
      <use x="366.845703" xlink:href="#ArialMT-63"/>
      <use x="416.845703" xlink:href="#ArialMT-61"/>
      <use x="472.460938" xlink:href="#ArialMT-6c"/>
      <use x="494.677734" xlink:href="#ArialMT-20"/>
      <use x="522.460938" xlink:href="#ArialMT-61"/>
      <use x="578.076172" xlink:href="#ArialMT-70"/>
      <use x="633.691406" xlink:href="#ArialMT-70"/>
      <use x="689.306641" xlink:href="#ArialMT-72"/>
      <use x="722.607422" xlink:href="#ArialMT-6f"/>
      <use x="778.222656" xlink:href="#ArialMT-78"/>
      <use x="828.222656" xlink:href="#ArialMT-69"/>
      <use x="850.439453" xlink:href="#ArialMT-6d"/>
      <use x="933.740234" xlink:href="#ArialMT-61"/>
      <use x="989.355469" xlink:href="#ArialMT-74"/>
      <use x="1017.138672" xlink:href="#ArialMT-69"/>
      <use x="1039.355469" xlink:href="#ArialMT-6f"/>
      <use x="1094.970703" xlink:href="#ArialMT-6e"/>
      <use x="1150.585938" xlink:href="#ArialMT-20"/>
     </g>
    </g>
   </g>
  </g>
 </g>
 <defs>
  <clipPath id="p05b2d31aa6">
   <rect height="388.08" width="390.6" x="63" y="60.48"/>
  </clipPath>
 </defs>
</svg>
